<?xml version="1.0" encoding="utf-8"?>
<!-- Generator: Adobe Illustrator 16.0.0, SVG Export Plug-In . SVG Version: 6.00 Build 0)  -->
<!DOCTYPE svg PUBLIC "-//W3C//DTD SVG 1.1//EN" "http://www.w3.org/Graphics/SVG/1.1/DTD/svg11.dtd">
<svg version="1.1" id="Layer_1" xmlns="http://www.w3.org/2000/svg" xmlns:xlink="http://www.w3.org/1999/xlink" x="0px" y="0px"
	 width="1453.544px" height="270.077px" viewBox="0 0 1453.544 270.077" enable-background="new 0 0 1453.544 270.077"
	 xml:space="preserve">
<g>
	<path fill-rule="evenodd" clip-rule="evenodd" fill="#282C2D" d="M226.244,268.395c-75.678,0-150.538,0-226.244,0
		c37.727-61.166,75.163-121.862,113.115-183.394C150.965,146.361,188.44,207.112,226.244,268.395z"/>
	<path fill-rule="evenodd" clip-rule="evenodd" fill="#282C2D" d="M482.237,268.396c-75.677,0-150.537,0-226.245,0
		C293.72,207.228,331.156,146.533,369.107,85C406.96,146.364,444.435,207.114,482.237,268.396z"/>
	<path fill-rule="evenodd" clip-rule="evenodd" fill="#0863B8" d="M128.603,0.346c75.252,0,149.505,0,224.978,0
		c-37.546,60.873-74.763,121.211-112.473,182.35C203.515,121.764,166.326,61.489,128.603,0.346z"/>
	<path fill-rule="evenodd" clip-rule="evenodd" fill="#0863B8" d="M820.395,75.95c0,19.541,0,39.082,0,59.018
		c-10.256,0-19.973,0-30.205,0c-0.088-1.792-0.248-3.56-0.248-5.328c-0.014-40.977,0.078-81.954-0.125-122.929
		c-0.025-4.969,1.514-6.335,6.219-6.01c5.471,0.378,11,0.311,16.48,0.013c3.771-0.206,5.523,1.283,7,4.683
		c11.85,27.29,23.9,54.491,35.902,81.713c0.717,1.624,1.555,3.193,2.764,5.663c1.395-2.713,2.457-4.535,3.299-6.453
		c11.82-26.942,23.672-53.871,35.334-80.881c1.459-3.379,3.174-4.917,6.975-4.729c6.148,0.303,12.324,0.125,18.486,0.071
		c2.473-0.022,4.063,0.4,4.055,3.516c-0.104,43.14-0.113,86.28-0.162,129.42c0,0.303-0.225,0.605-0.494,1.28
		c-9.57,0-19.287,0-29.832,0c0-19.903,0-39.707,0-59.51c-0.492-0.104-0.982-0.206-1.475-0.31c-0.73,1.527-1.527,3.027-2.182,4.587
		c-7.193,17.163-14.441,34.306-21.475,51.534c-1.256,3.08-2.791,4.709-6.203,4.094c-0.807-0.145-1.662,0.004-2.494-0.025
		c-4.951-0.176-11.045,1.329-14.535-1.023c-3.516-2.373-4.537-8.542-6.494-13.115c-6.471-15.112-12.869-30.256-19.295-45.388
		C821.258,75.875,820.826,75.913,820.395,75.95z"/>
	<path fill-rule="evenodd" clip-rule="evenodd" fill="#0863B8" d="M627.837,0.838c11.803,0,22.778-0.156,33.737,0.194
		c1.389,0.044,3.207,2.514,3.96,4.239c11.643,26.654,23.14,53.373,34.68,80.073c0.711,1.646,1.495,3.26,2.797,6.087
		c1.296-2.619,2.18-4.237,2.917-5.919c11.674-26.644,23.396-53.266,34.906-79.98c1.561-3.622,3.502-4.955,7.451-4.837
		c9.633,0.288,19.277,0.094,29.707,0.094c-1.369,3.168-2.416,5.717-3.559,8.221c-18.506,40.53-37.059,81.039-55.475,121.608
		c-1.574,3.468-3.361,5.124-7.429,4.86c-6.305-0.407-12.666,0.1-18.978-0.246c-1.693-0.093-4.142-1.479-4.813-2.933
		C668.01,89.59,648.46,46.8,628.895,4.017C628.565,3.297,628.387,2.508,627.837,0.838z"/>
	<path fill-rule="evenodd" clip-rule="evenodd" fill="#282C2D" d="M551.118,0c2.829,0,5.297,0,8.077,0c0,89.404,0,178.639,0,268.249
		c-2.509,0-5.083,0-8.077,0C551.118,179.092,551.118,89.743,551.118,0z"/>
	<path fill-rule="evenodd" clip-rule="evenodd" fill="#282C2D" d="M901.508,268.468c-3.975,0-7.273,0-11.02,0
		c0-34.449,0-68.802,0-103.397c3.563,0,6.984,0,10.893,0c0,14.197,0,28.268,0,43.8c7.971-11.101,18.041-13.771,29.65-12.28
		c10.861,1.393,18.775,8.108,19.281,18.955c0.814,17.419,0.219,34.903,0.219,52.721c-3.182,0-6.596,0-10.818,0
		c0-1.564,0-3.313,0-5.06c0-12.997,0.014-25.995-0.004-38.991c-0.014-10.9-3.691-16.595-11.754-18.283
		c-10.107-2.115-20.66,2.61-24.227,11.463c-1.447,3.594-2.047,7.73-2.123,11.639C901.35,242.001,901.508,254.978,901.508,268.468z"
		/>
	<path fill-rule="evenodd" clip-rule="evenodd" fill="#282C2D" d="M1315.465,208.133c0-3.486,0-6.552,0-9.955
		c3.824,0,7.213,0,10.959,0c0,23.283,0,46.496,0,70.077c-3.369,0-6.756,0-10.623,0c0-3.234,0-6.483,0-10.05
		c-0.939,0.286-1.533,0.279-1.746,0.561c-8.4,11.116-19.816,12.875-32.199,9.452c-12.594-3.479-18.791-13.175-21.059-25.413
		c-1.75-9.439-1.213-18.857,2.609-27.881c9.016-21.289,35.412-25.422,50.406-7.891
		C1314.098,207.367,1314.564,207.543,1315.465,208.133z M1270.859,232.987c0.91,4.645,1.316,9.34,2.789,13.672
		c3.068,9.021,10.877,14.059,20.377,13.858c9.434-0.198,16.541-5.25,19.563-14.252c2.826-8.42,2.945-17.001,0.4-25.507
		c-2.885-9.643-9.732-14.889-19.287-15.115c-10.365-0.245-17.793,4.517-21.07,14.151
		C1272.209,223.973,1271.771,228.487,1270.859,232.987z"/>
	<path fill-rule="evenodd" clip-rule="evenodd" fill="#282C2D" d="M1122.162,233.066c-0.631,4.104-0.873,8.642-2.063,12.915
		c-4.516,16.207-18.588,25.347-35.791,23.589c-16.83-1.72-28.719-14.37-29.479-32.212c-0.258-6.049,0.266-12.383,1.836-18.207
		c4.061-15.042,16.695-23.563,32.693-22.983c16.068,0.581,27.762,9.946,31.146,25.165
		C1121.33,225.037,1121.586,228.867,1122.162,233.066z M1088.074,205.629c-9.492,0.032-16.297,4.442-19.627,13.342
		c-3.5,9.357-3.463,18.935,0.023,28.286c3.234,8.682,10.455,13.296,19.779,13.263c9.521-0.035,16.848-4.92,19.891-13.836
		c3.041-8.905,3.123-18.008,0.08-26.949C1105.084,210.518,1097.836,205.595,1088.074,205.629z"/>
	<path fill-rule="evenodd" clip-rule="evenodd" fill="#282C2D" d="M799.18,232.745c-17.223,0-34.146,0-51.541,0
		c-0.377,9.599,1.246,18.331,9.482,23.473c12.828,8.007,25.162,4.012,37.338-3.801c1.26,2.525,2.479,4.969,3.914,7.845
		c-9.727,7.966-20.762,10.387-32.725,9.042c-23.027-2.587-31.549-21.191-29.629-40.925c1.391-14.306,7.867-25.514,22.082-30.411
		C781.609,189.87,801.705,206.667,799.18,232.745z M789.037,225.296c-1.199-14.075-8.895-21.308-21.092-20.43
		c-11.311,0.813-19.965,9.861-19.367,20.43C761.943,225.296,775.316,225.296,789.037,225.296z"/>
	<path fill-rule="evenodd" clip-rule="evenodd" fill="#282C2D" d="M985.77,268.399c-4.039,0-7.301,0-11.336,0
		c0-23.434,0-46.651,0-70.222c2.654,0,5.889,0,9.566,0c0.377,3.358,0.754,6.733,1.205,10.772c1.02-0.869,1.576-1.166,1.881-1.629
		c8.369-12.752,26.615-13.137,36.346-8.418c8.754,4.246,11.645,12.297,11.918,21.021c0.5,15.953,0.143,31.935,0.143,48.302
		c-3.5,0-6.879,0-11.041,0c0-1.862,0.014-3.782-0.002-5.703c-0.107-13.476,0.234-26.974-0.482-40.417
		c-0.563-10.559-4.127-14.569-11.771-16.157c-9.148-1.899-18.939,1.674-22.908,9.362c-2.049,3.969-3.215,8.787-3.363,13.27
		C985.492,241.69,985.77,254.825,985.77,268.399z"/>
	<path fill-rule="evenodd" clip-rule="evenodd" fill="#282C2D" d="M701.599,268.422c-4.376,0-7.837,0-11.849,0
		c0-30.096,0-59.995,0-90.398c-11.804,0-23.069,0-34.681,0c0-3.229,0-5.961,0-9.079c26.902,0,53.81,0,81.124,0
		c0,2.656,0,5.384,0,8.802c-11.275,0-22.66,0-34.594,0C701.599,208.312,701.599,238.206,701.599,268.422z"/>
	<path fill-rule="evenodd" clip-rule="evenodd" fill="#282C2D" d="M1400.785,253.991c7.35,2.225,14.449,5,21.811,6.357
		c4.189,0.771,8.906-0.359,13.201-1.402c4.244-1.03,6.631-4.307,6.799-8.818c0.17-4.588-2.24-7.798-6.34-9.174
		c-5.34-1.791-10.939-2.791-16.352-4.393c-3.801-1.125-7.773-2.173-11.148-4.145c-11.307-6.604-12.287-21.535-2.23-29.943
		c10.443-8.729,33.373-8.254,43.459,0.902c2.563,2.326,2.451,2.991-1.023,8.578c-6.902-2.229-13.443-4.9-20.244-6.31
		c-3.502-0.726-7.619,0.313-11.188,1.426c-4.34,1.353-6.74,4.887-6.68,9.538c0.059,4.425,2.342,7.761,6.547,9.113
		c5.844,1.879,11.854,3.232,17.76,4.925c2.705,0.774,5.434,1.604,7.973,2.788c6.393,2.984,10.098,7.938,10.395,15.174
		c0.305,7.356-2.859,12.852-9.037,16.646c-11.275,6.927-34.43,5.503-44.73-2.778C1394.82,258.507,1400.703,256.059,1400.785,253.991
		z"/>
	<path fill-rule="evenodd" clip-rule="evenodd" fill="#282C2D" d="M870.818,212.249c-6.838-2.266-13.232-5.623-19.91-6.333
		c-12.988-1.38-22.438,6.933-24.213,19.89c-0.494,3.608-0.662,7.329-0.416,10.959c1.352,19.898,18.168,29.384,36.057,20.405
		c2.641-1.325,5.121-2.972,7.666-4.465c4.848,8.06,4.674,8.884-3.309,12.737c-9.189,4.436-18.838,5.537-28.684,2.871
		c-9.736-2.636-16.855-8.66-20.494-18.176c-4.734-12.389-4.66-24.855,1.332-36.791c10.828-21.572,39.576-20.466,52.789-9.84
		c0.967,0.777,1.268,3.077,1.008,4.512C872.305,209.907,871.102,211.64,870.818,212.249z"/>
	<path fill-rule="evenodd" clip-rule="evenodd" fill="#282C2D" d="M1193.125,212.458c-5.807-2.254-11.303-5.432-17.176-6.464
		c-14.93-2.622-25.658,6.872-27.002,23.439c-0.369,4.565,0.018,9.399,1.127,13.842c3.865,15.479,19.742,21.624,35.105,13.853
		c2.506-1.268,4.844-2.865,7.252-4.307c5.381,6.982,5.111,8.613-2.525,12.365c-9.801,4.813-20.006,5.946-30.535,2.68
		c-13.525-4.194-21.451-15.857-22.311-32.717c-0.973-19.051,8.621-33.725,25.035-37.814c9.529-2.375,18.863-1.373,27.668,3.117
		C1197.389,204.34,1197.607,205.495,1193.125,212.458z"/>
	<path fill-rule="evenodd" clip-rule="evenodd" fill="#282C2D" d="M1385.537,259.01c0,3.163,0,5.956,0,8.743
		c-15.887,6.989-30.838-2.446-30.906-19.527c-0.047-11.821-0.01-23.644-0.01-35.466c0-1.79,0-3.58,0-5.871c-4.754,0-9.01,0-13.625,0
		c0-3.191,0-5.883,0-9.031c4.422,0,8.688,0,13.625,0c0-4.365,0.281-8.324-0.074-12.227c-0.404-4.461,0.641-7.384,5.578-8.055
		c1.746-0.237,3.402-1.121,5.645-1.898c0,7.486,0,14.428,0,21.887c6.814,0,13.221,0,20.016,0c0,3.233,0,5.945,0,9.068
		c-6.516,0-12.793,0-19.682,0c-0.125,2.113-0.314,3.861-0.318,5.609c-0.029,10.323-0.018,20.646-0.016,30.97
		C1365.773,257.53,1370.889,261.77,1385.537,259.01z"/>
	<path fill-rule="evenodd" clip-rule="evenodd" fill="#282C2D" d="M1212.602,198.059c2.961,0,6.227,0,9.66,0
		c0.482,3.699,0.941,7.209,1.533,11.746c6.828-11.811,16.346-15.175,28.762-12.771c-0.189,3.165-0.363,6.093-0.555,9.263
		c-2.367,0-4.447,0.031-6.529-0.004c-12.285-0.211-20.154,6.295-20.855,18.59c-0.711,12.445-0.34,24.952-0.438,37.432
		c-0.016,1.956-0.002,3.912-0.002,6.086c-4.031,0-7.453,0-11.576,0C1212.602,244.993,1212.602,221.758,1212.602,198.059z"/>
</g>
</svg>
